<?xml version="1.0" encoding="iso-8859-1"?>
<!-- Generator: Adobe Illustrator 19.0.0, SVG Export Plug-In . SVG Version: 6.00 Build 0)  -->
<svg version="1.1" id="Layer_1" xmlns="http://www.w3.org/2000/svg" xmlns:xlink="http://www.w3.org/1999/xlink" x="0px" y="0px"
	 viewBox="0 0 496.158 496.158" style="enable-background:new 0 0 496.158 496.158;" xml:space="preserve">
<path style="fill:#334D5C;" d="M248.082,0.003C111.07,0.003,0,111.063,0,248.085c0,137.001,111.07,248.07,248.082,248.07
	c137.006,0,248.076-111.069,248.076-248.07C496.158,111.062,385.088,0.003,248.082,0.003z"/>
<polygon style="fill:#63BD6E;" points="402.892,127.292 50.738,212.354 87.537,364.707 439.685,279.659 "/>
<g>
	<path style="fill:#117F4A;" d="M398.602,135.675L58.387,217.854l33.445,138.471l340.221-82.176L398.602,135.675z M62.263,220.708
		l334.183-80.719l31.712,131.306L93.979,352.012L62.263,220.708z"/>
	<path style="fill:#117F4A;" d="M311.165,230.07c-8.792-36.421-45.454-58.826-81.879-50.024
		c-36.427,8.8-58.824,45.466-50.032,81.888c8.797,36.431,45.464,58.818,81.895,50.021C297.57,303.158,319.967,266.5,311.165,230.07z
		"/>
</g>
<polygon style="fill:#54A35B;" points="415.386,147.138 55.844,191.529 75.043,347.085 434.59,302.696 "/>
<g>
	<path style="fill:#117F4A;" d="M410.174,154.983L62.812,197.859L80.265,339.24l347.365-42.873L410.174,154.983z M66.346,201.136
		l341.194-42.112l16.549,134.056l-341.2,42.12L66.346,201.136z"/>
	<path style="fill:#117F4A;" d="M312.555,238.801c-4.586-37.194-38.455-63.615-75.659-59.028
		c-37.185,4.591-63.603,38.458-59.017,75.652c4.587,37.194,38.461,63.612,75.649,59.026
		C290.713,309.864,317.151,275.995,312.555,238.801z"/>
</g>
<rect x="64.075" y="174.259" style="fill:#63BD6E;" width="362.28" height="156.75"/>
<g>
	<path style="fill:#117F4A;" d="M70.217,181.412V323.86h349.996V181.412H70.217z M417.109,320.177H73.319V185.094h343.79V320.177z"
		/>
	<path style="fill:#117F4A;" d="M245.212,190.804c-34.151,0-61.828,27.69-61.828,61.833c0,34.161,27.677,61.842,61.828,61.842
		s61.833-27.681,61.833-61.842C307.045,218.495,279.363,190.804,245.212,190.804z"/>
</g>
<path style="fill:#63BD6E;" d="M267.279,260.021c-0.904-2.722-2.166-5.096-3.795-7.092c-1.639-2.006-3.771-3.702-6.405-5.086
	c-1.412-0.772-4.233-1.771-8.467-3.004v-29.33c2.759,0.706,4.926,2.1,6.499,4.219c1.572,2.119,2.613,5.18,3.121,9.193l8.755-1.517
	c-0.768-6.461-3.014-11.538-6.734-15.239c-2.882-2.845-6.762-4.577-11.641-5.19v-4.85h-5.006v4.85
	c-5.575,0.688-9.81,2.534-12.701,5.539c-4.229,4.464-6.349,10.313-6.349,17.547c0,4.087,0.727,7.723,2.166,10.916
	c1.441,3.193,3.509,5.679,6.203,7.45c3.658,2.458,7.219,4.078,10.681,4.841v32.333c-3.335-0.377-6.184-2.383-8.558-6
	c-1.666-2.618-2.825-6.621-3.47-12.018l-8.463,1.855c0.32,5.312,1.44,9.776,3.362,13.393c1.931,3.617,4.21,6.254,6.838,7.912
	c2.623,1.648,6.061,2.788,10.29,3.4v10.162h5.006V294.03c5.901-0.312,10.709-2.807,14.438-7.507
	c3.721-4.691,5.575-10.577,5.575-17.66C268.626,265.709,268.174,262.762,267.279,260.021z M243.606,243.567
	c-3.848-1.375-6.569-3.25-8.176-5.595c-1.605-2.345-2.406-5.256-2.406-8.722c0-3.457,0.951-6.48,2.84-9.061
	c1.894-2.581,4.479-4.172,7.742-4.784V243.567z M256.744,280.459c-2.15,2.967-4.864,4.681-8.132,5.142v-30.949
	c4.559,1.771,7.587,3.786,9.099,6.009c1.502,2.232,2.25,5.189,2.25,8.891C259.961,273.866,258.889,277.501,256.744,280.459z"/>
<g>
</g>
<g>
</g>
<g>
</g>
<g>
</g>
<g>
</g>
<g>
</g>
<g>
</g>
<g>
</g>
<g>
</g>
<g>
</g>
<g>
</g>
<g>
</g>
<g>
</g>
<g>
</g>
<g>
</g>
</svg>
