<svg width="24px" height="24px" viewBox="0 0 24 24" fill="none" xmlns="http://www.w3.org/2000/svg">
<path fill-rule="evenodd" clip-rule="evenodd" d="M14.9703 3.3437C13.0166 2.88543 10.9834 2.88543 9.02975 3.3437C6.20842 4.00549 4.0055 6.20841 3.3437 9.02975C2.88543 10.9834 2.88543 13.0166 3.3437 14.9703C4.0055 17.7916 6.20842 19.9945 9.02975 20.6563C10.9834 21.1146 13.0166 21.1146 14.9703 20.6563C17.7916 19.9945 19.9945 17.7916 20.6563 14.9703C21.1146 13.0166 21.1146 10.9834 20.6563 9.02975C19.9945 6.20842 17.7916 4.00549 14.9703 3.3437ZM12.6219 8.24531C13.0373 7.82988 13.6008 7.59649 14.1883 7.59649C15.4117 7.59649 16.4035 8.58828 16.4035 9.81171C16.4035 10.3992 16.1701 10.9627 15.7547 11.3781L13.255 13.8778C12.0947 15.0381 10.6408 15.8613 9.04889 16.2593L8.56575 16.38C7.99455 16.5228 7.47716 16.0055 7.61996 15.4343L7.74074 14.9511C8.13873 13.3592 8.96189 11.9053 10.1222 10.745L12.6219 8.24531ZM14.1883 8.74523C13.9054 8.74523 13.6342 8.85759 13.4342 9.0576L13.0717 9.42012C13.0359 9.70519 13.1783 10.1031 13.5376 10.4624C13.8969 10.8217 14.2948 10.9641 14.5799 10.9284L14.9424 10.5658C15.1424 10.3658 15.2548 10.0946 15.2548 9.81171C15.2548 9.22271 14.7773 8.74523 14.1883 8.74523ZM13.6171 11.8911C13.2757 11.7409 12.9685 11.5179 12.7253 11.2747C12.4821 11.0315 12.2591 10.7244 12.1089 10.3829L10.9345 11.5573C9.94927 12.5425 9.24245 13.7701 8.88471 15.1153C10.2299 14.7576 11.4575 14.0507 12.4427 13.0655L13.6171 11.8911Z" fill="#363853"/>
</svg>
