<?xml version="1.0" encoding="iso-8859-1"?>
<!-- Generator: Adobe Illustrator 19.0.0, SVG Export Plug-In . SVG Version: 6.00 Build 0)  -->
<svg version="1.1" id="Layer_1" xmlns="http://www.w3.org/2000/svg" xmlns:xlink="http://www.w3.org/1999/xlink" x="0px" y="0px"
	 viewBox="0 0 496.158 496.158" style="enable-background:new 0 0 496.158 496.158;" xml:space="preserve">
<path style="fill:#FABC3D;" d="M496.158,248.085c0-137.021-111.07-248.082-248.076-248.082C111.07,0.003,0,111.063,0,248.085
	c0,137.002,111.07,248.07,248.082,248.07C385.088,496.155,496.158,385.087,496.158,248.085z"/>
<g>
	<circle style="fill:#FFFFFF;" cx="248.079" cy="332.809" r="49.15"/>
	<path style="fill:#FFFFFF;" d="M172.127,289.129c20.289-23.301,47.264-36.133,75.953-36.133c28.691,0,55.664,12.832,75.954,36.133
		c0,0.001,0.004,0.004,0.004,0.006l15.973-18.342c-0.002-0.004-0.005-0.005-0.006-0.008c-24.554-28.197-57.201-43.729-91.925-43.729
		s-67.369,15.531-91.924,43.729c-0.003,0.003-0.005,0.007-0.008,0.009l15.972,18.343
		C172.122,289.135,172.124,289.131,172.127,289.129z"/>
	<path style="fill:#FFFFFF;" d="M138.56,248.415c29.255-33.596,68.149-52.098,109.519-52.098c41.371,0,80.266,18.501,109.521,52.098
		c0.001,0.002,0.002,0.005,0.005,0.006l15.971-18.34c-0.001-0.004-0.004-0.006-0.005-0.008
		c-33.521-38.495-78.087-59.696-125.491-59.696c-47.402,0-91.969,21.201-125.49,59.696c-0.002,0.003-0.004,0.004-0.006,0.008
		l15.971,18.342C138.557,248.42,138.558,248.417,138.56,248.415z"/>
	<path style="fill:#FFFFFF;" d="M105.308,208.063c38.137-43.797,88.84-67.917,142.771-67.917c53.933,0,104.636,24.12,142.772,67.917
		c0.001,0.001,0.003,0.005,0.004,0.006l15.973-18.343c-0.002-0.001-0.004-0.004-0.005-0.006
		c-42.403-48.696-98.779-75.514-158.744-75.514c-59.963,0-116.339,26.817-158.741,75.514c-0.002,0.002-0.004,0.005-0.006,0.007
		l15.973,18.342C105.304,208.069,105.306,208.064,105.308,208.063z"/>
	<rect x="248.079" y="376.369" style="fill:#FFFFFF;" width="0.006" height="0.006"/>
</g>
<g>
</g>
<g>
</g>
<g>
</g>
<g>
</g>
<g>
</g>
<g>
</g>
<g>
</g>
<g>
</g>
<g>
</g>
<g>
</g>
<g>
</g>
<g>
</g>
<g>
</g>
<g>
</g>
<g>
</g>
</svg>
